<svg viewBox="0 0 20.37 21.58" fill="#1A171B" xmlns="http://www.w3.org/2000/svg"><path d="M19.62,21.58H.75c-.21,0-.41-.09-.55-.24-.14-.16-.21-.36-.19-.57L1.8.68c.03-.39.36-.68.75-.68h15.37c.39,0,.71.3.75.69l1.71,20.08c.02.21-.05.42-.19.57-.14.15-.34.24-.55.24ZM1.57,20.08h17.24l-1.58-18.58H3.23l-1.66,18.58Z"/><path d="M12.39,10.99h-4.4c-1.72,0-3.12-1.41-3.12-3.15v-3.29c0-.41.34-.75.75-.75s.75.34.75.75v3.29c0,.91.73,1.65,1.62,1.65h4.4c.9,0,1.62-.74,1.62-1.65v-3.29c0-.41.34-.75.75-.75s.75.34.75.75v3.29c0,1.74-1.4,3.15-3.12,3.15Z"/></svg>